<svg width="23" height="23" viewBox="0 0 23 23" fill="none" xmlns="http://www.w3.org/2000/svg">
<path d="M1.42838 11.0968V14.5468C1.42838 17.3958 2.12638 18.5518 3.03438 19.4908C3.97438 20.3998 5.13238 21.0988 7.98038 21.0988H14.8764C17.7244 21.0988 18.8824 20.3988 19.8224 19.4908C20.7304 18.5518 21.4284 17.3968 21.4284 14.5468V7.64879C21.4284 4.79979 20.7304 3.64279 19.8224 2.70379C18.8824 1.79679 17.7244 1.09679 14.8764 1.09679H7.98038C5.13238 1.09679 3.97438 1.79579 3.03438 2.70379C2.12638 3.64379 1.42838 4.79979 1.42838 7.64879V11.0968Z" stroke="black" stroke-width="2" stroke-linecap="round" stroke-linejoin="round"/>
<path d="M5.97338 11.0978H16.8834" stroke="black" stroke-width="2" stroke-linecap="round" stroke-linejoin="round"/>
<path d="M11.4314 5.64178V16.5518" stroke="black" stroke-width="2" stroke-linecap="round" stroke-linejoin="round"/>
</svg>
