<svg width="16" height="4" viewBox="0 0 16 4" fill="none" xmlns="http://www.w3.org/2000/svg">
<path d="M8 3.96669C8.82843 3.96669 9.5 3.29512 9.5 2.46669C9.5 1.63826 8.82843 0.96669 8 0.96669C7.17157 0.96669 6.5 1.63826 6.5 2.46669C6.5 3.29512 7.17157 3.96669 8 3.96669Z" fill="black"/>
<path d="M2 3.96669C2.82843 3.96669 3.5 3.29512 3.5 2.46669C3.5 1.63826 2.82843 0.96669 2 0.96669C1.17157 0.96669 0.5 1.63826 0.5 2.46669C0.5 3.29512 1.17157 3.96669 2 3.96669Z" fill="black"/>
<path d="M14 3.96669C14.8284 3.96669 15.5 3.29512 15.5 2.46669C15.5 1.63826 14.8284 0.96669 14 0.96669C13.1716 0.96669 12.5 1.63826 12.5 2.46669C12.5 3.29512 13.1716 3.96669 14 3.96669Z" fill="black"/>
</svg>
