<svg width="22" height="23" viewBox="0 0 22 23" fill="none" xmlns="http://www.w3.org/2000/svg">
<path d="M21 22.6817H14.999C14.7338 22.6817 14.4794 22.5763 14.2919 22.3888C14.1044 22.2013 13.999 21.9469 13.999 21.6817V16.2267C14.0063 15.8286 13.9341 15.433 13.7868 15.0631C13.6395 14.6932 13.4199 14.3563 13.141 14.0722C12.862 13.7881 12.5292 13.5624 12.162 13.4084C11.7949 13.2543 11.4007 13.175 11.0025 13.175C10.6043 13.175 10.2101 13.2543 9.84297 13.4084C9.4758 13.5624 9.14301 13.7881 8.86403 14.0722C8.58506 14.3563 8.3655 14.6932 8.21818 15.0631C8.07086 15.433 7.99873 15.8286 8.006 16.2267V21.6817C8.006 21.9469 7.90064 22.2013 7.71311 22.3888C7.52557 22.5763 7.27122 22.6817 7.006 22.6817H1C0.734784 22.6817 0.48043 22.5763 0.292893 22.3888C0.105357 22.2013 0 21.9469 0 21.6817V11.2247C8.99233e-05 11.0893 0.0276051 10.9554 0.0808849 10.831C0.134165 10.7065 0.212104 10.5942 0.31 10.5007L10.31 0.957694C10.4961 0.780632 10.7431 0.681885 11 0.681885C11.2569 0.681885 11.5039 0.780632 11.69 0.957694L21.69 10.5007C21.7879 10.5942 21.8658 10.7065 21.9191 10.831C21.9724 10.9554 21.9999 11.0893 22 11.2247V21.6817C22 21.9469 21.8946 22.2013 21.7071 22.3888C21.5196 22.5763 21.2652 22.6817 21 22.6817Z" fill="black"/>
</svg>
