<svg width="103" height="29" viewBox="0 0 103 29" fill="none" xmlns="http://www.w3.org/2000/svg">
<path fill-rule="evenodd" clip-rule="evenodd" d="M5.27282 0.0944563C3.17032 0.973519 0.868444 3.44758 0.143444 6.55602C-0.780931 10.4891 3.05251 12.1476 3.3697 11.6038C3.7322 10.9695 2.68095 10.752 2.46345 8.70383C2.19157 6.07571 3.41501 3.12133 4.95563 1.83446C5.24563 1.58977 5.22751 1.92508 5.22751 2.54133L5.17313 15.6457C5.17313 18.4551 5.05532 19.3341 4.84688 20.2132C4.63844 21.1013 4.30313 21.6995 4.54782 21.9351C4.83782 22.1888 6.07032 21.5726 6.77719 20.5757C7.58486 19.3438 8.0047 17.898 7.98251 16.4251C8.04595 14.5582 8.03688 11.5948 8.04595 9.90914C8.04595 8.36852 8.07313 3.82821 8.01876 1.10039C8.00063 0.429768 6.14282 -0.268044 5.27282 0.103519V0.0944563ZM79.7031 13.217C79.6742 14.3926 79.4027 15.5496 78.9056 16.6154C78.1353 18.1741 76.5222 18.6545 75.8334 16.416C75.4709 15.2016 75.4438 13.1626 75.7156 11.4588C75.9875 9.73696 76.7488 8.42289 78.0084 8.54071C79.2591 8.65852 79.8391 10.2626 79.7031 13.217ZM58.7234 22.2613C58.7053 24.681 58.3247 26.8016 57.5091 27.427C56.34 28.297 54.7903 27.6354 55.1075 25.8682C55.3884 24.3095 56.7388 22.7145 58.7325 20.757L58.7234 22.2613ZM58.4063 13.1988C58.3532 14.3771 58.0829 15.5354 57.6088 16.6154C56.8384 18.1741 55.2163 18.6545 54.5366 16.416C54.0834 14.8845 54.1922 12.9088 54.4188 11.6582C54.7178 10.0451 55.4338 8.54071 56.7116 8.54071C57.9622 8.54071 58.5784 9.90008 58.4063 13.1988ZM46.2534 13.1807C46.2305 14.3707 45.9621 15.543 45.465 16.6245C44.6675 18.1651 43.0816 18.6545 42.3838 16.416C41.8853 14.812 42.0575 12.6098 42.2659 11.4316C42.5741 9.66446 43.3534 8.42289 44.5588 8.53164C45.8094 8.65852 46.4075 10.2535 46.2534 13.1807ZM101.943 14.821C101.643 14.821 101.498 15.1382 101.39 15.6638C100.991 17.4945 100.574 17.9113 100.03 17.9113C99.4322 17.9113 98.8885 17.0051 98.7435 15.1926C98.6347 13.7607 98.6528 11.1326 98.7978 8.51352C98.825 7.97883 98.6709 7.45321 97.23 6.92758C96.6138 6.70102 95.7075 6.36571 95.2634 7.45321C94.366 9.52242 93.7327 11.6964 93.3784 13.9238C93.3784 13.9782 93.3059 13.9873 93.2878 13.8695C93.2244 13.081 93.0522 11.6401 93.0341 8.62227C93.0341 8.03321 92.9072 7.53477 92.2547 7.12696C91.8288 6.85508 90.5509 6.39289 90.0797 6.94571C89.69 7.39883 89.2278 8.64039 88.7475 10.0995L88.0769 12.0932L88.0859 7.67071C88.0859 7.21758 87.7778 7.06352 87.6781 7.03633C87.1464 6.87233 86.6002 6.76004 86.0469 6.70102C85.6119 6.70102 85.5031 6.94571 85.5031 7.30821C85.5031 7.35352 85.4306 11.5223 85.4306 14.4404V14.8573C85.1859 16.1985 84.3975 18.0201 83.5366 18.0201C82.6756 18.0201 82.2678 17.2588 82.2678 13.7788C82.2678 11.7488 82.3313 10.8698 82.3584 9.40164C82.3766 8.54977 82.4128 7.90633 82.4128 7.76133C82.4038 7.30821 81.6244 7.08164 81.2619 6.99102C80.8994 6.90946 80.5731 6.87321 80.3284 6.89133C79.9659 6.90946 79.7213 7.13602 79.7213 7.45321V7.95164C79.3301 7.33303 78.7479 6.85893 78.0628 6.60133C76.7578 6.21164 75.3984 6.55602 74.3744 7.98789C73.4904 9.25233 72.9701 10.7349 72.87 12.2745C72.725 13.6338 72.7794 15.0023 73.0241 16.1713C72.725 17.4763 72.1541 18.0201 71.5378 18.0201C70.6406 18.0201 69.9972 16.552 70.0697 14.0326C70.1241 12.3651 70.4503 11.196 70.8128 9.51039C70.9669 8.78539 70.8491 8.42289 70.5319 8.06039C70.2419 7.72508 69.6256 7.55289 68.7284 7.76133C68.0941 7.90633 67.1878 8.06946 66.3722 8.18727C66.3722 8.18727 66.4175 7.99696 66.4628 7.64352C66.6713 5.80383 64.6684 5.94883 64.025 6.53789C63.6444 6.89133 63.3906 7.29914 63.2819 8.05133C63.1278 9.22946 64.0975 9.78227 64.0975 9.78227C63.4747 12.1346 62.4308 14.3545 61.0163 16.3345V15.7001C61.0072 12.6551 61.0434 10.2626 61.0616 9.40164C61.0797 8.54977 61.1159 7.92446 61.1159 7.77039C61.1159 7.44414 60.9166 7.31727 60.5178 7.16321C60.1553 7.01821 59.7384 6.92758 59.3034 6.89133C58.7597 6.84602 58.4244 7.13602 58.4334 7.48039V7.95164C58.0405 7.33105 57.4547 6.85665 56.7659 6.60133C55.4609 6.21164 54.1016 6.55602 53.0775 7.98789C52.2252 9.26499 51.7079 10.736 51.5731 12.2654C51.4372 13.6882 51.4553 14.8935 51.6547 15.9266C51.4463 16.9507 50.8481 18.011 50.1775 18.011C49.3166 18.011 48.8181 17.2588 48.8181 13.7788C48.8181 11.7488 48.8816 10.8698 48.9088 9.40164C48.9269 8.54977 48.9631 7.90633 48.9631 7.76133C48.9631 7.30821 48.1747 7.08164 47.8122 6.99102C47.4316 6.90039 47.0963 6.87321 46.8516 6.90039C46.5163 6.91852 46.2806 7.21758 46.2806 7.44414V7.95164C45.8877 7.33105 45.3019 6.85665 44.6131 6.60133C43.3081 6.21164 41.9578 6.56508 40.9247 7.98789C40.245 8.92133 39.7013 9.95446 39.4203 12.2473C39.3442 12.8605 39.3079 13.4781 39.3116 14.096C39.0397 15.7363 37.8525 17.6304 36.8828 17.6304C36.3119 17.6304 35.7681 16.5338 35.7681 14.1866C35.7681 11.0601 35.9675 6.61039 35.9947 6.18446L37.4628 6.15727C38.0791 6.15727 38.6319 6.16633 39.4475 6.12102C39.8553 6.10289 40.245 4.63477 39.8281 4.45352C39.6378 4.37196 38.2875 4.29946 37.7438 4.29039C37.2906 4.28133 36.04 4.19071 36.04 4.19071C36.04 4.19071 36.1578 1.23633 36.185 0.928206C36.2031 0.656331 35.8678 0.529456 35.6684 0.447894C35.2211 0.267853 34.7565 0.134236 34.2819 0.0491437C33.5931 -0.0867938 33.285 0.0491435 33.2216 0.629144C33.1309 1.50821 33.0856 4.09102 33.0856 4.09102C32.5781 4.09102 30.8472 3.99133 30.3488 3.99133C29.8775 3.99133 29.37 6.00321 30.0225 6.03039L32.9225 6.11196L32.8953 12.0298V12.4557C32.415 14.9298 30.7475 16.262 30.7475 16.262C31.11 14.6307 30.3669 13.4073 29.0528 12.3651C28.5634 11.9845 27.6028 11.2595 26.5244 10.462C26.5244 10.462 27.1497 9.84571 27.7025 8.61321C28.0922 7.74321 28.1103 6.74633 27.1497 6.52883C25.5638 6.15727 24.2497 7.31727 23.86 8.56789C23.7079 8.97274 23.6698 9.41152 23.7497 9.83653C23.8296 10.2615 24.0245 10.6565 24.3131 10.9785L24.4491 11.1507C24.0866 11.8395 23.5972 12.7638 23.1803 13.4888C22.0294 15.4826 21.1503 17.0685 20.4888 17.0685C19.9631 17.0685 19.9722 15.4645 19.9722 13.9601C19.9722 12.6641 20.0628 10.7157 20.1444 8.70383C20.1716 8.03321 19.8363 7.65258 19.2744 7.30821C18.8276 6.99913 18.3215 6.7862 17.7881 6.68289C17.1538 6.68289 15.3413 6.77352 13.6194 11.7307C13.4109 12.356 12.985 13.4888 12.985 13.4888L13.0213 7.53477C13.0213 7.38977 12.9488 7.26289 12.7766 7.17227C12.2357 6.88476 11.639 6.71781 11.0275 6.68289C10.7013 6.68289 10.5381 6.83696 10.5381 7.13602L10.4747 16.4704C10.4747 17.1773 10.4928 18.002 10.5653 18.3645C10.6378 18.727 10.7466 19.017 10.8916 19.1891C11.0275 19.3704 11.1906 19.4973 11.4534 19.5516C11.7072 19.606 13.0666 19.7782 13.1391 19.2616C13.2297 18.6363 13.2297 17.9657 13.9456 15.4554C15.0513 11.5495 16.5013 9.63727 17.19 8.96664C17.3078 8.83977 17.4438 8.83977 17.4347 9.03008L17.2353 13.8513C17.0541 18.7179 17.9422 19.6151 19.2019 19.6151C20.1716 19.6151 21.54 18.6545 23.0081 16.2257L25.455 12.1476L26.8869 13.4707C28.0469 14.5582 28.4275 15.6095 28.1738 16.5973C27.9834 17.3495 27.2494 18.1379 25.9625 17.3766C25.5819 17.1501 25.4188 16.9779 25.0472 16.7332C24.8388 16.5973 24.5306 16.552 24.3403 16.697C23.86 17.0595 23.5791 17.5307 23.425 18.1016C23.2709 18.6545 23.8328 18.9535 24.4128 19.2073C24.9113 19.4338 25.9897 19.6332 26.6784 19.6604C29.3428 19.751 31.4816 18.3735 32.9678 14.821C33.2397 17.8841 34.3725 19.6241 36.3391 19.6241C37.6531 19.6241 38.9763 17.9204 39.5563 16.2529C39.7194 16.9326 39.9641 17.5216 40.2813 18.0291C41.8038 20.4307 44.7491 19.9051 46.2263 17.866C46.6794 17.2407 46.7519 17.0141 46.7519 17.0141C46.7961 17.7003 47.0928 18.3457 47.5848 18.826C48.0768 19.3063 48.7293 19.5874 49.4163 19.6151C50.4131 19.6151 51.4372 19.1438 52.1622 17.5216C52.2438 17.7029 52.3434 17.866 52.4341 18.0291C53.9566 20.4307 56.9019 19.9051 58.3791 17.866L58.5603 17.6123L58.6056 18.881L57.2463 20.1226C54.9625 22.207 53.2225 23.7929 53.0956 25.6416C52.9325 27.9979 54.8447 28.8679 56.2947 28.9857C57.0199 29.0218 57.7417 28.8636 58.3853 28.5274C59.029 28.1913 59.5712 27.6893 59.9559 27.0735C60.6628 26.0313 61.1341 23.7838 61.0978 21.5635L61.0434 18.3373C63.2142 15.827 64.8818 12.9226 65.9553 9.78227C65.9553 9.78227 66.7981 9.79133 67.6953 9.73696C67.9853 9.71883 68.0669 9.77321 68.0125 9.98164C67.9491 10.2354 66.8797 14.3679 67.8584 17.1229C68.5291 19.0079 70.0334 19.6151 70.9397 19.6151C71.9819 19.6151 72.9878 18.8266 73.5225 17.6485L73.7309 18.0291C75.2534 20.4307 78.1897 19.9051 79.6759 17.866C80.0113 17.4129 80.2016 17.0141 80.2016 17.0141C80.5278 19.0079 82.0775 19.6241 82.9656 19.6241C83.89 19.6241 84.7781 19.2435 85.485 17.5579C85.5122 18.301 85.5575 18.9082 85.63 19.0985C85.6753 19.2163 85.9381 19.3704 86.1375 19.4338C86.9803 19.742 87.8413 19.597 88.1675 19.5335C88.385 19.4882 88.5572 19.307 88.5844 18.8538C88.6478 17.6485 88.6116 15.6276 88.9741 14.1323C89.5813 11.6038 90.1522 10.6251 90.4241 10.1448C90.5781 9.87289 90.7503 9.82758 90.7594 10.1176C90.7684 10.6976 90.7956 12.4013 91.0313 14.6941C91.2125 16.3798 91.4481 17.3766 91.6203 17.6848C92.1369 18.591 92.7713 18.6363 93.2788 18.6363C93.605 18.6363 94.2938 18.5457 94.2303 17.9748C94.2031 17.6938 94.2484 15.9629 94.8647 13.4798C95.2544 11.8576 95.9069 10.3985 96.1425 9.85477C96.2331 9.66446 96.2784 9.81852 96.2784 9.85477C96.2241 10.9604 96.1153 14.6126 96.5684 16.6154C97.1847 19.316 98.97 19.6241 99.5953 19.6241C100.928 19.6241 102.015 18.6091 102.378 15.9538C102.468 15.3195 102.332 14.821 101.943 14.821Z" fill="black"/>
</svg>
