<svg width="23" height="23" viewBox="0 0 23 23" fill="none" xmlns="http://www.w3.org/2000/svg">
<path d="M1.75923 6.68179H21.6602" stroke="black" stroke-width="2" stroke-linejoin="round"/>
<path d="M13.2142 1.68079L16.0722 6.68179" stroke="black" stroke-width="2" stroke-linecap="round" stroke-linejoin="round"/>
<path d="M6.91724 1.78979L9.71224 6.6818" stroke="black" stroke-width="2" stroke-linecap="round" stroke-linejoin="round"/>
<path d="M1.71024 11.6808V15.1298C1.71024 17.9788 2.40824 19.1358 3.31624 20.0748C4.25624 20.9828 5.41424 21.6818 8.26224 21.6818H15.1582C18.0062 21.6818 19.1642 20.9828 20.1042 20.0748C21.0122 19.1358 21.7102 17.9788 21.7102 15.1298V8.23179C21.7102 5.38379 21.0122 4.22579 20.1042 3.28679C19.1642 2.37879 18.0062 1.67979 15.1582 1.67979H8.26224C5.41424 1.67979 4.25624 2.37879 3.31624 3.28679C2.40824 4.22579 1.71024 5.38379 1.71024 8.23179V11.6808Z" stroke="black" stroke-width="2" stroke-linecap="round" stroke-linejoin="round"/>
<path fill-rule="evenodd" clip-rule="evenodd" d="M9.47323 17.3438C9.33511 17.264 9.22042 17.1493 9.14072 17.0112C9.06102 16.873 9.01912 16.7163 9.01923 16.5568V11.3098C9.01905 11.1501 9.06094 10.9932 9.14069 10.8548C9.22044 10.7164 9.33524 10.6015 9.47352 10.5216C9.6118 10.4417 9.7687 10.3997 9.9284 10.3997C10.0881 10.3997 10.245 10.4419 10.3832 10.5218L14.9282 13.1458C15.0666 13.2255 15.1814 13.3403 15.2613 13.4785C15.3412 13.6168 15.3832 13.7736 15.3832 13.9333C15.3832 14.093 15.3412 14.2498 15.2613 14.388C15.1814 14.5263 15.0666 14.641 14.9282 14.7208L10.3832 17.3448C10.2449 17.4247 10.088 17.4667 9.92823 17.4667C9.7685 17.4667 9.61157 17.4247 9.47323 17.3448V17.3438Z" fill="black"/>
</svg>
