<svg width="23" height="23" viewBox="0 0 23 23" fill="none" xmlns="http://www.w3.org/2000/svg">
<path d="M18.5702 10.1818C18.5702 11.8629 18.0717 13.5063 17.1377 14.9041C16.2037 16.302 14.8762 17.3914 13.323 18.0348C11.7699 18.6781 10.0608 18.8464 8.41197 18.5185C6.76313 18.1905 5.24858 17.3809 4.05983 16.1922C2.87109 15.0035 2.06154 13.4889 1.73357 11.8401C1.40559 10.1912 1.57392 8.48216 2.21726 6.92898C2.86061 5.37581 3.95008 4.04829 5.34789 3.1143C6.74571 2.18031 8.3891 1.68179 10.0702 1.68179C12.3246 1.68179 14.4866 2.57733 16.0806 4.17139C17.6747 5.76544 18.5702 7.92745 18.5702 10.1818Z" stroke="black" stroke-width="2" stroke-linecap="round" stroke-linejoin="round"/>
<path d="M16.0812 16.1928L21.5702 21.6818" stroke="black" stroke-width="2" stroke-linecap="round" stroke-linejoin="round"/>
</svg>
